<svg width="122" height="119" viewBox="0 0 122 119" fill="none" xmlns="http://www.w3.org/2000/svg">
<path d="M119.881 44.4513C120.335 43.5409 120.222 42.4582 119.713 41.6357C119.151 40.6764 118.152 40.06 117.074 39.8617L60.8018 24.2197C59.3624 23.9521 57.9743 24.6329 57.4288 25.7267L37.727 65.227C35.9825 62.1937 33.2352 59.5684 29.6838 57.7971C20.9981 53.4648 10.9427 56.0832 7.16829 63.6505C3.39392 71.2178 7.34841 80.8313 16.0342 85.1635C24.4033 89.3378 34.2228 86.934 38.1683 79.7991L38.3541 79.4266L58.4156 39.205L107.506 53.5465L91.3677 85.9033C89.6164 82.8666 86.873 80.2506 83.3216 78.4793C74.6359 74.147 64.5736 76.762 60.7992 84.3293C57.0248 91.8966 60.9891 101.508 69.6749 105.84C78.0441 110.014 87.8537 107.613 91.7992 100.478L91.985 100.105L119.771 44.3964L119.881 44.4513Z" fill="#FFB800" fill-opacity="0.71"/>
</svg>
