<svg width="88" height="49" viewBox="0 0 88 49" fill="none" xmlns="http://www.w3.org/2000/svg">
<path d="M30.458 35.454L23.6347 42.1587C21.3763 44.3513 18.3267 45.5769 15.1518 45.5676C11.977 45.5583 8.93484 44.3148 6.68985 42.1088C4.44486 39.9028 3.17938 36.9134 3.16982 33.7936C3.16023 30.6737 4.40732 27.677 6.63871 25.4578L16.8301 15.4432C16.8248 15.2667 16.8212 15.09 16.8212 14.9127C16.8202 13.4213 17.0151 11.9359 17.4009 10.4935L4.40685 23.2622C1.5775 26.0623 -0.00714674 29.8504 2.42323e-05 33.7963C0.00719523 37.7423 1.6056 41.5246 4.44511 44.3148C7.28462 47.105 11.1338 48.6756 15.1494 48.6825C19.165 48.6896 23.0198 47.1324 25.8694 44.3521L32.6924 37.6475L30.458 35.454Z" fill="url(#paint0_linear)"/>
<path d="M53.5947 48.7145C51.6018 48.7178 49.6279 48.3342 47.7864 47.5856C45.9449 46.8373 44.2719 45.7385 42.8637 44.3529L23.6347 25.4574C20.7952 22.6594 19.2019 18.8683 19.2048 14.9167C19.2076 10.9652 20.8064 7.1763 23.6499 4.38218C26.4935 1.58808 30.3493 0.0172066 34.3707 0.0145602C38.3919 0.0119139 42.25 1.57771 45.0973 4.36807L64.3262 23.2635C66.4496 25.3481 67.896 28.0049 68.4821 30.8979C69.0685 33.7905 68.7679 36.7892 67.6191 39.5142C66.47 42.2392 64.5242 44.5677 62.0277 46.2057C59.5313 47.8434 56.5967 48.7164 53.595 48.7145H53.5947ZM45.0973 42.1589C47.3567 44.3471 50.4047 45.5687 53.5771 45.5574C56.7493 45.5462 59.7884 44.3027 62.0317 42.0984C64.2747 39.8943 65.5401 36.9079 65.5515 33.7908C65.5629 30.6735 64.3198 27.678 62.093 25.458L42.864 6.56258C41.7509 5.45289 40.4255 4.57059 38.9638 3.96652C37.5024 3.36244 35.9336 3.04854 34.3481 3.0429C32.7624 3.03723 31.1914 3.33995 29.7255 3.93358C28.2596 4.52721 26.9276 5.40006 25.8064 6.50178C24.6852 7.6035 23.797 8.91234 23.1928 10.3529C22.5887 11.7934 22.2807 13.3372 22.2864 14.8953C22.2922 16.4533 22.6116 17.9949 23.2264 19.4311C23.8411 20.8673 24.739 22.1698 25.8683 23.2635L45.0973 42.1589Z" fill="url(#paint1_linear)"/>
<path d="M62.0927 4.36786L55.2697 11.0725L57.503 13.267L64.326 6.56237C66.5854 4.37419 69.6335 3.15256 72.8059 3.16385C75.978 3.17517 79.0171 4.41849 81.2604 6.62276C83.5034 8.82699 84.7688 11.8133 84.7802 14.9306C84.7916 18.0478 83.5486 21.0431 81.3217 23.2633L71.1225 33.2856C71.1741 34.9565 70.9794 36.626 70.545 38.2421L83.555 25.4578C86.4011 22.6611 88 18.8679 88 14.9128C88 10.9577 86.4011 7.16457 83.555 4.36786C80.7088 1.57117 76.8488 0 72.8237 0C68.7989 0 64.9389 1.57117 62.0927 4.36786Z" fill="url(#paint2_linear)"/>
<defs>
<linearGradient id="paint0_linear" x1="-0.915387" y1="34.247" x2="92.0284" y2="16.7642" gradientUnits="userSpaceOnUse">
<stop stop-color="#E7267A"/>
<stop offset="0.502" stop-color="#64328A"/>
<stop offset="1" stop-color="#2B4B9B"/>
</linearGradient>
<linearGradient id="paint1_linear" x1="-0.523904" y1="35.8091" x2="91.1664" y2="11.3948" gradientUnits="userSpaceOnUse">
<stop stop-color="#E7267A"/>
<stop offset="0.502" stop-color="#64328A"/>
<stop offset="1" stop-color="#2B4B9B"/>
</linearGradient>
<linearGradient id="paint2_linear" x1="-0.17529" y1="37.3241" x2="92.91" y2="19.8249" gradientUnits="userSpaceOnUse">
<stop stop-color="#E7267A"/>
<stop offset="0.502" stop-color="#64328A"/>
<stop offset="1" stop-color="#2B4B9B"/>
</linearGradient>
</defs>
</svg>
